# Blender 4.0.2
# www.blender.org
mtllib Terrain_Chunk_LOD2.mtl
o LOD2
v -16.000000 0.000000 16.000000
v 16.000000 0.000000 16.000000
v -16.000000 0.000000 -16.000000
v 16.000000 0.000000 -16.000000
v -16.000000 0.000000 0.000000
v 0.000000 0.000000 16.000000
v 16.000000 0.000000 0.000000
v 0.000000 0.000000 -16.000000
v 0.000000 0.000000 0.000000
v -16.000000 0.000000 5.333333
v -16.000000 0.000000 10.666666
v 5.333333 0.000000 16.000000
v 10.666666 0.000000 16.000000
v 16.000000 0.000000 -5.333333
v 16.000000 0.000000 -10.666666
v -5.333333 0.000000 -16.000000
v -10.666666 0.000000 -16.000000
v -16.000000 0.000000 -10.666666
v -16.000000 0.000000 -5.333333
v -10.666666 0.000000 16.000000
v -5.333333 0.000000 16.000000
v 16.000000 0.000000 10.666666
v 16.000000 0.000000 5.333333
v 10.666666 0.000000 -16.000000
v 5.333333 0.000000 -16.000000
v 0.000000 0.000000 -7.680001
v 0.000000 0.000000 -15.360000
v 0.000000 0.000000 15.360000
v 0.000000 0.000000 7.680000
v -7.680001 0.000000 0.000000
v -15.360000 0.000000 0.000000
v 15.360000 0.000000 0.000000
v 7.680000 0.000000 0.000000
v 7.680001 0.000000 15.360000
v 7.680000 0.000000 7.680000
v 15.360000 0.000000 15.360000
v 15.360000 0.000000 7.680000
v -15.360000 0.000000 15.360000
v -15.360000 0.000000 7.680000
v -7.680000 0.000000 15.360000
v -7.680000 0.000000 7.680000
v -15.360000 0.000000 -7.680001
v -15.360000 0.000000 -15.360000
v -7.680001 0.000000 -7.680001
v -7.680001 0.000000 -15.360000
v 7.680000 0.000000 -7.680001
v 7.680000 0.000000 -15.360000
v 15.360000 0.000000 -7.680001
v 15.360000 0.000000 -15.360000
v -16.000000 0.000000 11.259258
v -16.000000 0.000000 11.851851
v -16.000000 0.000000 12.444444
v -16.000000 0.000000 13.037037
v -16.000000 0.000000 13.629629
v -16.000000 0.000000 14.222221
v -16.000000 0.000000 14.814815
v -16.000000 0.000000 15.407408
v 11.259258 0.000000 16.000000
v 11.851851 0.000000 16.000000
v 12.444444 0.000000 16.000000
v 13.037037 0.000000 16.000000
v 13.629629 0.000000 16.000000
v 14.222221 0.000000 16.000000
v 14.814815 0.000000 16.000000
v 15.407408 0.000000 16.000000
v 16.000000 0.000000 -11.259258
v 16.000000 0.000000 -11.851851
v 16.000000 0.000000 -12.444444
v 16.000000 0.000000 -13.037037
v 16.000000 0.000000 -13.629629
v 16.000000 0.000000 -14.222221
v 16.000000 0.000000 -14.814815
v 16.000000 0.000000 -15.407408
v -11.259258 0.000000 -16.000000
v -11.851851 0.000000 -16.000000
v -12.444444 0.000000 -16.000000
v -13.037037 0.000000 -16.000000
v -13.629629 0.000000 -16.000000
v -14.222221 0.000000 -16.000000
v -14.814815 0.000000 -16.000000
v -15.407408 0.000000 -16.000000
v -16.000000 0.000000 -4.740740
v -16.000000 0.000000 -4.148148
v -16.000000 0.000000 -3.555555
v -16.000000 0.000000 -2.962963
v -16.000000 0.000000 -2.370370
v -16.000000 0.000000 -1.777778
v -16.000000 0.000000 -1.185185
v -16.000000 0.000000 -0.592593
v -4.740740 0.000000 16.000000
v -4.148148 0.000000 16.000000
v -3.555555 0.000000 16.000000
v -2.962963 0.000000 16.000000
v -2.370370 0.000000 16.000000
v -1.777778 0.000000 16.000000
v -1.185185 0.000000 16.000000
v -0.592593 0.000000 16.000000
v 16.000000 0.000000 4.740740
v 16.000000 0.000000 4.148148
v 16.000000 0.000000 3.555555
v 16.000000 0.000000 2.962963
v 16.000000 0.000000 2.370370
v 16.000000 0.000000 1.777778
v 16.000000 0.000000 1.185185
v 16.000000 0.000000 0.592593
v 4.740740 0.000000 -16.000000
v 4.148148 0.000000 -16.000000
v 3.555555 0.000000 -16.000000
v 2.962963 0.000000 -16.000000
v 2.370370 0.000000 -16.000000
v 1.777778 0.000000 -16.000000
v 1.185185 0.000000 -16.000000
v 0.592593 0.000000 -16.000000
v -16.000000 0.000000 0.592593
v -16.000000 0.000000 1.185185
v -16.000000 0.000000 1.777778
v -16.000000 0.000000 2.370370
v -16.000000 0.000000 2.962963
v -16.000000 0.000000 3.555556
v -16.000000 0.000000 4.148149
v -16.000000 0.000000 4.740741
v -16.000000 0.000000 5.925926
v -16.000000 0.000000 6.518518
v -16.000000 0.000000 7.111111
v -16.000000 0.000000 7.703704
v -16.000000 0.000000 8.296296
v -16.000000 0.000000 8.888888
v -16.000000 0.000000 9.481481
v -16.000000 0.000000 10.074074
v 0.592593 0.000000 16.000000
v 1.185185 0.000000 16.000000
v 1.777778 0.000000 16.000000
v 2.370370 0.000000 16.000000
v 2.962963 0.000000 16.000000
v 3.555556 0.000000 16.000000
v 4.148149 0.000000 16.000000
v 4.740741 0.000000 16.000000
v 5.925926 0.000000 16.000000
v 6.518518 0.000000 16.000000
v 7.111111 0.000000 16.000000
v 7.703704 0.000000 16.000000
v 8.296296 0.000000 16.000000
v 8.888888 0.000000 16.000000
v 9.481481 0.000000 16.000000
v 10.074074 0.000000 16.000000
v 16.000000 0.000000 -0.592593
v 16.000000 0.000000 -1.185185
v 16.000000 0.000000 -1.777778
v 16.000000 0.000000 -2.370370
v 16.000000 0.000000 -2.962963
v 16.000000 0.000000 -3.555556
v 16.000000 0.000000 -4.148149
v 16.000000 0.000000 -4.740741
v 16.000000 0.000000 -5.925926
v 16.000000 0.000000 -6.518518
v 16.000000 0.000000 -7.111111
v 16.000000 0.000000 -7.703704
v 16.000000 0.000000 -8.296296
v 16.000000 0.000000 -8.888888
v 16.000000 0.000000 -9.481481
v 16.000000 0.000000 -10.074074
v -0.592593 0.000000 -16.000000
v -1.185185 0.000000 -16.000000
v -1.777778 0.000000 -16.000000
v -2.370370 0.000000 -16.000000
v -2.962963 0.000000 -16.000000
v -3.555556 0.000000 -16.000000
v -4.148149 0.000000 -16.000000
v -4.740741 0.000000 -16.000000
v -5.925926 0.000000 -16.000000
v -6.518518 0.000000 -16.000000
v -7.111111 0.000000 -16.000000
v -7.703704 0.000000 -16.000000
v -8.296296 0.000000 -16.000000
v -8.888888 0.000000 -16.000000
v -9.481481 0.000000 -16.000000
v -10.074074 0.000000 -16.000000
v -16.000000 0.000000 -15.407408
v -16.000000 0.000000 -14.814816
v -16.000000 0.000000 -14.222222
v -16.000000 0.000000 -13.629629
v -16.000000 0.000000 -13.037037
v -16.000000 0.000000 -12.444445
v -16.000000 0.000000 -11.851851
v -16.000000 0.000000 -11.259258
v -16.000000 0.000000 -10.074074
v -16.000000 0.000000 -9.481482
v -16.000000 0.000000 -8.888889
v -16.000000 0.000000 -8.296297
v -16.000000 0.000000 -7.703704
v -16.000000 0.000000 -7.111112
v -16.000000 0.000000 -6.518519
v -16.000000 0.000000 -5.925926
v -15.407408 0.000000 16.000000
v -14.814816 0.000000 16.000000
v -14.222222 0.000000 16.000000
v -13.629629 0.000000 16.000000
v -13.037037 0.000000 16.000000
v -12.444445 0.000000 16.000000
v -11.851851 0.000000 16.000000
v -11.259258 0.000000 16.000000
v -10.074074 0.000000 16.000000
v -9.481482 0.000000 16.000000
v -8.888889 0.000000 16.000000
v -8.296297 0.000000 16.000000
v -7.703704 0.000000 16.000000
v -7.111112 0.000000 16.000000
v -6.518519 0.000000 16.000000
v -5.925926 0.000000 16.000000
v 16.000000 0.000000 15.407408
v 16.000000 0.000000 14.814816
v 16.000000 0.000000 14.222222
v 16.000000 0.000000 13.629629
v 16.000000 0.000000 13.037037
v 16.000000 0.000000 12.444445
v 16.000000 0.000000 11.851851
v 16.000000 0.000000 11.259258
v 16.000000 0.000000 10.074074
v 16.000000 0.000000 9.481482
v 16.000000 0.000000 8.888889
v 16.000000 0.000000 8.296297
v 16.000000 0.000000 7.703704
v 16.000000 0.000000 7.111112
v 16.000000 0.000000 6.518519
v 16.000000 0.000000 5.925926
v 15.407408 0.000000 -16.000000
v 14.814816 0.000000 -16.000000
v 14.222222 0.000000 -16.000000
v 13.629629 0.000000 -16.000000
v 13.037037 0.000000 -16.000000
v 12.444445 0.000000 -16.000000
v 11.851851 0.000000 -16.000000
v 11.259258 0.000000 -16.000000
v 10.074074 0.000000 -16.000000
v 9.481482 0.000000 -16.000000
v 8.888889 0.000000 -16.000000
v 8.296297 0.000000 -16.000000
v 7.703704 0.000000 -16.000000
v 7.111112 0.000000 -16.000000
v 6.518519 0.000000 -16.000000
v 5.925926 0.000000 -16.000000
vn -0.0000 1.0000 -0.0000
vt 0.833333 1.000000
vt 0.833333 0.833333
vt 0.851852 1.000000
vt 0.333333 1.000000
vt 0.333333 0.833333
vt 0.351852 1.000000
vt 0.333333 0.333333
vt 0.500000 0.500000
vt 0.333333 0.500000
vt 1.000000 0.500000
vt 0.833333 0.500000
vt 1.000000 0.481481
vt 0.666667 0.333333
vt 0.500000 0.333333
vt 0.833333 0.333333
vt 0.666667 0.500000
vt 0.648148 0.000000
vt 0.666667 0.000000
vt 0.666667 0.166667
vt 0.500000 0.166667
vt 0.814815 0.000000
vt 0.833333 0.000000
vt 0.833333 0.166667
vt 1.000000 0.148148
vt 1.000000 0.166667
vt 1.000000 0.333333
vt 1.000000 0.314815
vt 0.000000 0.333333
vt 0.166667 0.333333
vt 0.000000 0.351852
vt 0.166667 0.500000
vt 0.166667 0.166667
vt 0.148148 0.000000
vt 0.166667 0.000000
vt 0.000000 0.166667
vt 0.000000 0.185185
vt 0.314815 0.000000
vt 0.333333 0.000000
vt 0.333333 0.166667
vt 0.481481 0.000000
vt 0.500000 0.000000
vt 0.000000 0.833333
vt 0.166667 0.833333
vt 0.000000 0.851852
vt 0.166667 1.000000
vt 0.185185 1.000000
vt 0.000000 0.500000
vt 0.000000 0.518519
vt 0.000000 0.666667
vt 0.166667 0.666667
vt 0.000000 0.685185
vt 0.333333 0.666667
vt 0.500000 0.666667
vt 0.500000 1.000000
vt 0.500000 0.833333
vt 0.518519 1.000000
vt 0.666667 1.000000
vt 0.666667 0.833333
vt 0.685185 1.000000
vt 0.666667 0.666667
vt 0.833333 0.666667
vt 1.000000 0.666667
vt 1.000000 0.648148
vt 1.000000 0.833333
vt 1.000000 0.814815
vt 1.000000 0.685185
vt 1.000000 0.703704
vt 1.000000 0.722222
vt 1.000000 0.740741
vt 1.000000 0.759259
vt 1.000000 0.777778
vt 1.000000 0.796296
vt 1.000000 0.518519
vt 1.000000 0.537037
vt 1.000000 0.555556
vt 1.000000 0.574074
vt 1.000000 0.592593
vt 1.000000 0.611111
vt 1.000000 0.629630
vt 0.814815 1.000000
vt 0.796296 1.000000
vt 0.777778 1.000000
vt 0.759259 1.000000
vt 0.740741 1.000000
vt 0.722222 1.000000
vt 0.703704 1.000000
vt 0.648148 1.000000
vt 0.629630 1.000000
vt 0.611111 1.000000
vt 0.592593 1.000000
vt 0.574074 1.000000
vt 0.555556 1.000000
vt 0.537037 1.000000
vt 0.000000 0.814815
vt 0.000000 0.796296
vt 0.000000 0.777778
vt 0.000000 0.759259
vt 0.000000 0.740741
vt 0.000000 0.722222
vt 0.000000 0.703704
vt 0.000000 0.648148
vt 0.000000 0.629630
vt 0.000000 0.611111
vt 0.000000 0.592593
vt 0.000000 0.574074
vt 0.000000 0.555556
vt 0.000000 0.537037
vt 0.314815 1.000000
vt 0.296296 1.000000
vt 0.277778 1.000000
vt 0.259259 1.000000
vt 0.240741 1.000000
vt 0.222222 1.000000
vt 0.203704 1.000000
vt 0.148148 1.000000
vt 0.000000 0.870370
vt 0.129630 1.000000
vt 0.000000 0.888889
vt 0.111111 1.000000
vt 0.000000 0.907407
vt 0.092593 1.000000
vt 0.000000 0.925926
vt 0.074074 1.000000
vt 0.000000 0.944444
vt 0.055556 1.000000
vt 0.000000 0.962963
vt 0.037037 1.000000
vt 0.000000 0.981481
vt 0.018519 1.000000
vt 0.351852 0.000000
vt 0.370370 0.000000
vt 0.388889 0.000000
vt 0.407407 0.000000
vt 0.425926 0.000000
vt 0.444444 0.000000
vt 0.462963 0.000000
vt 0.185185 0.000000
vt 0.203704 0.000000
vt 0.222222 0.000000
vt 0.240741 0.000000
vt 0.259259 0.000000
vt 0.277778 0.000000
vt 0.296296 0.000000
vt 0.000000 0.314815
vt 0.000000 0.296296
vt 0.000000 0.277778
vt 0.000000 0.259259
vt 0.000000 0.240741
vt 0.000000 0.222222
vt 0.000000 0.203704
vt 0.000000 0.148148
vt 0.129630 0.000000
vt 0.000000 0.129630
vt 0.111111 0.000000
vt 0.000000 0.111111
vt 0.092593 0.000000
vt 0.000000 0.092593
vt 0.074074 0.000000
vt 0.000000 0.074074
vt 0.055556 0.000000
vt 0.000000 0.055556
vt 0.037037 0.000000
vt 0.000000 0.037037
vt 0.018519 0.000000
vt 0.000000 0.018519
vt 0.000000 0.000000
vt 0.000000 0.481481
vt 0.000000 0.462963
vt 0.000000 0.444444
vt 0.000000 0.425926
vt 0.000000 0.407407
vt 0.000000 0.388889
vt 0.000000 0.370370
vt 1.000000 0.185185
vt 1.000000 0.203704
vt 1.000000 0.222222
vt 1.000000 0.240741
vt 1.000000 0.259259
vt 1.000000 0.277778
vt 1.000000 0.296296
vt 0.851852 0.000000
vt 1.000000 0.129630
vt 0.870370 0.000000
vt 1.000000 0.111111
vt 0.888889 0.000000
vt 1.000000 0.092593
vt 0.907407 0.000000
vt 1.000000 0.074074
vt 0.925926 0.000000
vt 1.000000 0.055556
vt 0.944444 0.000000
vt 1.000000 0.037037
vt 0.962963 0.000000
vt 1.000000 0.018519
vt 0.981481 0.000000
vt 0.685185 0.000000
vt 0.703704 0.000000
vt 0.722222 0.000000
vt 0.740741 0.000000
vt 0.759259 0.000000
vt 0.777778 0.000000
vt 0.796296 0.000000
vt 0.518519 0.000000
vt 0.537037 0.000000
vt 0.555556 0.000000
vt 0.574074 0.000000
vt 0.592593 0.000000
vt 0.611111 0.000000
vt 0.629630 0.000000
vt 1.000000 0.351852
vt 1.000000 0.370370
vt 1.000000 0.388889
vt 1.000000 0.407407
vt 1.000000 0.425926
vt 1.000000 0.444444
vt 1.000000 0.462963
vt 0.481481 1.000000
vt 0.462963 1.000000
vt 0.444444 1.000000
vt 0.425926 1.000000
vt 0.407407 1.000000
vt 0.388889 1.000000
vt 0.370370 1.000000
vt 1.000000 0.851852
vt 0.870370 1.000000
vt 1.000000 0.870370
vt 0.888889 1.000000
vt 1.000000 0.888889
vt 0.907407 1.000000
vt 1.000000 0.907407
vt 0.925926 1.000000
vt 1.000000 0.925926
vt 0.944444 1.000000
vt 1.000000 0.944444
vt 0.962963 1.000000
vt 1.000000 0.962963
vt 0.981481 1.000000
vt 1.000000 0.981481
vt 0.000000 1.000000
vt 1.000000 0.000000
vt 1.000000 1.000000
s 0
f 24/1/1 49/2/1 233/3/1
f 16/4/1 45/5/1 169/6/1
f 41/7/1 9/8/1 30/9/1
f 7/10/1 32/11/1 105/12/1
f 35/13/1 9/8/1 29/14/1
f 37/15/1 33/16/1 35/13/1
f 137/17/1 12/18/1 34/19/1
f 34/19/1 29/14/1 28/20/1
f 145/21/1 13/22/1 36/23/1
f 34/19/1 37/15/1 35/13/1
f 36/23/1 217/24/1 22/25/1
f 23/26/1 37/15/1 225/27/1
f 10/28/1 39/29/1 121/30/1
f 39/29/1 30/9/1 31/31/1
f 38/32/1 201/33/1 20/34/1
f 11/35/1 38/32/1 129/36/1
f 209/37/1 21/38/1 40/39/1
f 40/39/1 39/29/1 38/32/1
f 97/40/1 6/41/1 28/20/1
f 28/20/1 41/7/1 40/39/1
f 18/42/1 43/43/1 185/44/1
f 17/45/1 43/43/1 177/46/1
f 5/47/1 31/31/1 89/48/1
f 19/49/1 42/50/1 193/51/1
f 30/9/1 42/50/1 31/31/1
f 44/52/1 43/43/1 42/50/1
f 9/8/1 44/52/1 30/9/1
f 26/53/1 45/5/1 44/52/1
f 8/54/1 27/55/1 113/56/1
f 25/57/1 47/58/1 241/59/1
f 33/16/1 26/53/1 9/8/1
f 46/60/1 27/55/1 26/53/1
f 32/11/1 46/60/1 33/16/1
f 48/61/1 47/58/1 46/60/1
f 14/62/1 48/61/1 153/63/1
f 15/64/1 49/2/1 161/65/1
f 48/61/1 14/62/1 154/66/1
f 48/61/1 154/66/1 155/67/1
f 48/61/1 155/67/1 156/68/1
f 48/61/1 156/68/1 157/69/1
f 48/61/1 158/70/1 49/2/1
f 49/2/1 158/70/1 159/71/1
f 49/2/1 159/71/1 160/72/1
f 49/2/1 160/72/1 161/65/1
f 32/11/1 7/10/1 146/73/1
f 32/11/1 146/73/1 147/74/1
f 32/11/1 147/74/1 148/75/1
f 32/11/1 148/75/1 149/76/1
f 32/11/1 150/77/1 48/61/1
f 48/61/1 150/77/1 151/78/1
f 48/61/1 151/78/1 152/79/1
f 48/61/1 152/79/1 153/63/1
f 49/2/1 24/1/1 234/80/1
f 49/2/1 234/80/1 235/81/1
f 49/2/1 235/81/1 236/82/1
f 49/2/1 236/82/1 237/83/1
f 47/58/1 237/83/1 238/84/1
f 47/58/1 238/84/1 239/85/1
f 47/58/1 239/85/1 240/86/1
f 47/58/1 240/86/1 241/59/1
f 47/58/1 25/57/1 106/87/1
f 47/58/1 106/87/1 107/88/1
f 47/58/1 107/88/1 108/89/1
f 47/58/1 108/89/1 109/90/1
f 27/55/1 109/90/1 110/91/1
f 27/55/1 110/91/1 111/92/1
f 27/55/1 111/92/1 112/93/1
f 27/55/1 112/93/1 113/56/1
f 186/94/1 43/43/1 18/42/1
f 187/95/1 43/43/1 186/94/1
f 188/96/1 43/43/1 187/95/1
f 189/97/1 43/43/1 188/96/1
f 42/50/1 189/97/1 190/98/1
f 42/50/1 190/98/1 191/99/1
f 42/50/1 191/99/1 192/100/1
f 42/50/1 192/100/1 193/51/1
f 82/101/1 42/50/1 19/49/1
f 83/102/1 42/50/1 82/101/1
f 84/103/1 42/50/1 83/102/1
f 85/104/1 42/50/1 84/103/1
f 31/31/1 85/104/1 86/105/1
f 31/31/1 86/105/1 87/106/1
f 31/31/1 87/106/1 88/107/1
f 31/31/1 88/107/1 89/48/1
f 45/5/1 16/4/1 170/108/1
f 45/5/1 170/108/1 171/109/1
f 45/5/1 171/109/1 172/110/1
f 45/5/1 172/110/1 173/111/1
f 45/5/1 174/112/1 43/43/1
f 43/43/1 174/112/1 175/113/1
f 43/43/1 175/113/1 176/114/1
f 43/43/1 176/114/1 177/46/1
f 43/43/1 17/45/1 74/115/1
f 185/44/1 43/43/1 184/116/1
f 43/43/1 74/115/1 75/117/1
f 184/116/1 43/43/1 183/118/1
f 43/43/1 75/117/1 76/119/1
f 183/118/1 43/43/1 182/120/1
f 43/43/1 76/119/1 77/121/1
f 182/120/1 43/43/1 181/122/1
f 43/43/1 77/121/1 78/123/1
f 181/122/1 43/43/1 180/124/1
f 43/43/1 78/123/1 79/125/1
f 180/124/1 43/43/1 179/126/1
f 43/43/1 79/125/1 80/127/1
f 179/126/1 43/43/1 178/128/1
f 43/43/1 80/127/1 81/129/1
f 81/129/1 178/128/1 43/43/1
f 21/38/1 90/130/1 40/39/1
f 90/130/1 91/131/1 40/39/1
f 91/131/1 92/132/1 40/39/1
f 92/132/1 93/133/1 40/39/1
f 93/133/1 28/20/1 40/39/1
f 94/134/1 95/135/1 28/20/1
f 95/135/1 96/136/1 28/20/1
f 96/136/1 97/40/1 28/20/1
f 20/34/1 202/137/1 38/32/1
f 202/137/1 203/138/1 38/32/1
f 203/138/1 204/139/1 38/32/1
f 204/139/1 205/140/1 38/32/1
f 205/140/1 40/39/1 38/32/1
f 206/141/1 207/142/1 40/39/1
f 207/142/1 208/143/1 40/39/1
f 208/143/1 209/37/1 40/39/1
f 122/144/1 39/29/1 10/28/1
f 123/145/1 39/29/1 122/144/1
f 124/146/1 39/29/1 123/145/1
f 125/147/1 39/29/1 124/146/1
f 39/29/1 126/148/1 38/32/1
f 38/32/1 126/148/1 127/149/1
f 38/32/1 127/149/1 128/150/1
f 38/32/1 128/150/1 129/36/1
f 50/151/1 38/32/1 11/35/1
f 38/32/1 200/152/1 201/33/1
f 51/153/1 38/32/1 50/151/1
f 38/32/1 199/154/1 200/152/1
f 52/155/1 38/32/1 51/153/1
f 38/32/1 198/156/1 199/154/1
f 53/157/1 38/32/1 52/155/1
f 38/32/1 197/158/1 198/156/1
f 54/159/1 38/32/1 53/157/1
f 38/32/1 196/160/1 197/158/1
f 55/161/1 38/32/1 54/159/1
f 38/32/1 195/162/1 196/160/1
f 56/163/1 38/32/1 55/161/1
f 194/164/1 195/162/1 38/32/1
f 57/165/1 38/32/1 56/163/1
f 194/164/1 57/165/1 1/166/1
f 114/167/1 31/31/1 5/47/1
f 115/168/1 31/31/1 114/167/1
f 116/169/1 31/31/1 115/168/1
f 117/170/1 31/31/1 116/169/1
f 31/31/1 118/171/1 39/29/1
f 39/29/1 118/171/1 119/172/1
f 39/29/1 119/172/1 120/173/1
f 39/29/1 120/173/1 121/30/1
f 36/23/1 22/25/1 218/174/1
f 36/23/1 218/174/1 219/175/1
f 36/23/1 219/175/1 220/176/1
f 36/23/1 220/176/1 221/177/1
f 37/15/1 221/177/1 222/178/1
f 37/15/1 222/178/1 223/179/1
f 37/15/1 223/179/1 224/180/1
f 37/15/1 224/180/1 225/27/1
f 13/22/1 58/181/1 36/23/1
f 36/23/1 216/182/1 217/24/1
f 58/181/1 59/183/1 36/23/1
f 36/23/1 215/184/1 216/182/1
f 59/183/1 60/185/1 36/23/1
f 36/23/1 214/186/1 215/184/1
f 60/185/1 61/187/1 36/23/1
f 36/23/1 213/188/1 214/186/1
f 61/187/1 62/189/1 36/23/1
f 36/23/1 212/190/1 213/188/1
f 62/189/1 63/191/1 36/23/1
f 36/23/1 211/192/1 212/190/1
f 63/191/1 64/193/1 36/23/1
f 36/23/1 210/194/1 211/192/1
f 64/193/1 65/195/1 36/23/1
f 65/195/1 210/194/1 36/23/1
f 12/18/1 138/196/1 34/19/1
f 138/196/1 139/197/1 34/19/1
f 139/197/1 140/198/1 34/19/1
f 140/198/1 141/199/1 34/19/1
f 142/200/1 34/19/1 141/199/1
f 142/200/1 143/201/1 36/23/1
f 143/201/1 144/202/1 36/23/1
f 144/202/1 145/21/1 36/23/1
f 6/41/1 130/203/1 28/20/1
f 130/203/1 131/204/1 28/20/1
f 131/204/1 132/205/1 28/20/1
f 132/205/1 133/206/1 28/20/1
f 134/207/1 28/20/1 133/206/1
f 134/207/1 135/208/1 34/19/1
f 135/208/1 136/209/1 34/19/1
f 136/209/1 137/17/1 34/19/1
f 37/15/1 23/26/1 98/210/1
f 37/15/1 98/210/1 99/211/1
f 37/15/1 99/211/1 100/212/1
f 37/15/1 100/212/1 101/213/1
f 32/11/1 101/213/1 102/214/1
f 32/11/1 102/214/1 103/215/1
f 32/11/1 103/215/1 104/216/1
f 32/11/1 104/216/1 105/12/1
f 27/55/1 8/54/1 162/217/1
f 27/55/1 162/217/1 163/218/1
f 27/55/1 163/218/1 164/219/1
f 27/55/1 164/219/1 165/220/1
f 27/55/1 166/221/1 45/5/1
f 45/5/1 166/221/1 167/222/1
f 45/5/1 167/222/1 168/223/1
f 45/5/1 168/223/1 169/6/1
f 49/2/1 15/64/1 66/224/1
f 233/3/1 49/2/1 232/225/1
f 49/2/1 66/224/1 67/226/1
f 232/225/1 49/2/1 231/227/1
f 49/2/1 67/226/1 68/228/1
f 231/227/1 49/2/1 230/229/1
f 49/2/1 68/228/1 69/230/1
f 230/229/1 49/2/1 229/231/1
f 49/2/1 69/230/1 70/232/1
f 229/231/1 49/2/1 228/233/1
f 49/2/1 70/232/1 71/234/1
f 228/233/1 49/2/1 227/235/1
f 49/2/1 71/234/1 72/236/1
f 227/235/1 49/2/1 226/237/1
f 49/2/1 72/236/1 73/238/1
f 73/238/1 226/237/1 49/2/1
f 41/7/1 29/14/1 9/8/1
f 35/13/1 33/16/1 9/8/1
f 37/15/1 32/11/1 33/16/1
f 34/19/1 35/13/1 29/14/1
f 34/19/1 36/23/1 37/15/1
f 39/29/1 41/7/1 30/9/1
f 40/39/1 41/7/1 39/29/1
f 28/20/1 29/14/1 41/7/1
f 30/9/1 44/52/1 42/50/1
f 44/52/1 45/5/1 43/43/1
f 9/8/1 26/53/1 44/52/1
f 26/53/1 27/55/1 45/5/1
f 33/16/1 46/60/1 26/53/1
f 46/60/1 47/58/1 27/55/1
f 32/11/1 48/61/1 46/60/1
f 48/61/1 49/2/1 47/58/1
f 48/61/1 157/69/1 158/70/1
f 32/11/1 149/76/1 150/77/1
f 47/58/1 49/2/1 237/83/1
f 27/55/1 47/58/1 109/90/1
f 42/50/1 43/43/1 189/97/1
f 31/31/1 42/50/1 85/104/1
f 45/5/1 173/111/1 174/112/1
f 81/129/1 3/239/1 178/128/1
f 93/133/1 94/134/1 28/20/1
f 205/140/1 206/141/1 40/39/1
f 39/29/1 125/147/1 126/148/1
f 194/164/1 38/32/1 57/165/1
f 31/31/1 117/170/1 118/171/1
f 37/15/1 36/23/1 221/177/1
f 65/195/1 2/240/1 210/194/1
f 142/200/1 36/23/1 34/19/1
f 134/207/1 34/19/1 28/20/1
f 32/11/1 37/15/1 101/213/1
f 27/55/1 165/220/1 166/221/1
f 73/238/1 4/241/1 226/237/1
